<svg xmlns="http://www.w3.org/2000/svg" width="900" height="520" viewBox="0 0 900 520">
  <defs>
    <linearGradient id="bg" x1="0" y1="0" x2="1" y2="1">
      <stop offset="0%" stop-color="#dc2626"/>
      <stop offset="100%" stop-color="#f97316"/>
    </linearGradient>
    <filter id="shadow" x="-20%" y="-20%" width="140%" height="140%">
      <feDropShadow dx="0" dy="14" stdDeviation="18" flood-color="#020617" flood-opacity=".25"/>
    </filter>
  </defs>
  <rect width="900" height="520" rx="34" fill="url(#bg)"/>
  <circle cx="745" cy="95" r="120" fill="white" opacity=".08"/>
  <circle cx="120" cy="410" r="160" fill="white" opacity=".08"/>
  <text x="450" y="95" fill="white" font-size="52" font-family="Arial, sans-serif" font-weight="900" text-anchor="middle">HONDA BRIO</text>
  <text x="450" y="140" fill="#dbeafe" font-size="23" font-family="Arial, sans-serif" font-weight="700" text-anchor="middle">City Car • CVT</text>
  <g filter="url(#shadow)">
    
        <path d="M205 285 L285 205 H455 C505 205 560 245 585 285 H625 C670 285 705 320 705 365 V385 H175 V355 C175 315 180 295 205 285Z" fill="white"/>
        <path d="M310 222 H430 C470 222 505 245 532 285 H275Z" fill="#e0efff"/>
        <rect x="322" y="232" width="70" height="42" rx="8" fill="#bfdbfe"/>
        <rect x="405" y="232" width="78" height="42" rx="8" fill="#bfdbfe"/>
        
    <circle cx="260" cy="390" r="58" fill="#111827"/>
    <circle cx="260" cy="390" r="29" fill="#e5e7eb"/>
    <circle cx="640" cy="390" r="58" fill="#111827"/>
    <circle cx="640" cy="390" r="29" fill="#e5e7eb"/>
    <rect x="210" y="330" width="65" height="14" rx="7" fill="#dbeafe"/>
    <rect x="615" y="330" width="58" height="14" rx="7" fill="#dbeafe"/>
  </g>
</svg>