<svg xmlns="http://www.w3.org/2000/svg" width="900" height="520" viewBox="0 0 900 520">
  <defs>
    <linearGradient id="bg" x1="0" y1="0" x2="1" y2="1">
      <stop offset="0%" stop-color="#1d4ed8"/>
      <stop offset="100%" stop-color="#22c55e"/>
    </linearGradient>
    <filter id="shadow" x="-20%" y="-20%" width="140%" height="140%">
      <feDropShadow dx="0" dy="14" stdDeviation="18" flood-color="#020617" flood-opacity=".25"/>
    </filter>
  </defs>
  <rect width="900" height="520" rx="34" fill="url(#bg)"/>
  <circle cx="745" cy="95" r="120" fill="white" opacity=".08"/>
  <circle cx="120" cy="410" r="160" fill="white" opacity=".08"/>
  <text x="450" y="95" fill="white" font-size="52" font-family="Arial, sans-serif" font-weight="900" text-anchor="middle">ALTARENTCAR</text>
  <text x="450" y="140" fill="#dbeafe" font-size="23" font-family="Arial, sans-serif" font-weight="700" text-anchor="middle">Rental Mobil</text>
  <g filter="url(#shadow)">
    
        <path d="M160 290 L285 195 H545 C600 195 650 245 680 290 H720 C760 290 790 325 790 365 V390 H130 V350 C130 318 140 300 160 290Z" fill="white"/>
        <path d="M310 215 H520 C560 215 600 245 628 290 H255Z" fill="#e0efff"/>
        <rect x="325" y="228" width="86" height="48" rx="8" fill="#bfdbfe"/>
        <rect x="425" y="228" width="95" height="48" rx="8" fill="#bfdbfe"/>
        
    <circle cx="260" cy="390" r="58" fill="#111827"/>
    <circle cx="260" cy="390" r="29" fill="#e5e7eb"/>
    <circle cx="640" cy="390" r="58" fill="#111827"/>
    <circle cx="640" cy="390" r="29" fill="#e5e7eb"/>
    <rect x="210" y="330" width="65" height="14" rx="7" fill="#dbeafe"/>
    <rect x="615" y="330" width="58" height="14" rx="7" fill="#dbeafe"/>
  </g>
</svg>